G04*
G04 #@! TF.GenerationSoftware,Altium Limited,Altium Designer,25.1.2 (22)*
G04*
G04 Layer_Color=128*
%FSLAX25Y25*%
%MOIN*%
G70*
G04*
G04 #@! TF.SameCoordinates,DC056F1D-8049-40C2-8729-A4453FB46455*
G04*
G04*
G04 #@! TF.FilePolarity,Positive*
G04*
G01*
G75*
%ADD35C,0.00500*%
D35*
X363335Y294500D02*
X367665D01*
X365500Y292335D02*
Y296665D01*
X363335Y314500D02*
X367665D01*
X365500Y312335D02*
Y316665D01*
X363335Y334500D02*
X367665D01*
X365500Y332335D02*
Y336665D01*
X363335Y344500D02*
X367665D01*
X365500Y342335D02*
Y346665D01*
X363335Y324500D02*
X367665D01*
X365500Y322335D02*
Y326665D01*
X363335Y304500D02*
X367665D01*
X365500Y302335D02*
Y306665D01*
X363335Y284500D02*
X367665D01*
X365500Y282335D02*
Y286665D01*
X363335Y274500D02*
X367665D01*
X365500Y272335D02*
Y276665D01*
X363335Y264500D02*
X367665D01*
X365500Y262335D02*
Y266665D01*
X386563Y350000D02*
X394437D01*
X390500Y346063D02*
Y353937D01*
X398563Y266000D02*
X406437D01*
X402500Y262063D02*
Y269937D01*
X413335Y324500D02*
X417665D01*
X415500Y322335D02*
Y326665D01*
X413335Y334500D02*
X417665D01*
X415500Y332335D02*
Y336665D01*
X413335Y344500D02*
X417665D01*
X415500Y342335D02*
Y346665D01*
X413335Y294500D02*
X417665D01*
X415500Y292335D02*
Y296665D01*
X413335Y304500D02*
X417665D01*
X415500Y302335D02*
Y306665D01*
X413335Y284500D02*
X417665D01*
X415500Y282335D02*
Y286665D01*
X413335Y274500D02*
X417665D01*
X415500Y272335D02*
Y276665D01*
X400250Y290000D02*
X401750D01*
X401000Y289250D02*
Y290750D01*
X394250Y317000D02*
X395750D01*
X395000Y316250D02*
Y317750D01*
X403500Y314500D02*
X405000D01*
X404250Y313750D02*
Y315250D01*
X403250Y309500D02*
X404750D01*
X404000Y308750D02*
Y310250D01*
X406750Y319500D02*
X408250D01*
X407500Y318750D02*
Y320250D01*
X402250Y304500D02*
X403750D01*
X403000Y303750D02*
Y305250D01*
X374845Y336500D02*
X376344D01*
X375594Y335750D02*
Y337250D01*
X405156Y280000D02*
X406656D01*
X405905Y279250D02*
Y280750D01*
X400250Y294500D02*
X401750D01*
X401000Y293750D02*
Y295250D01*
M02*
