G04*
G04 #@! TF.GenerationSoftware,Altium Limited,Altium Designer,25.1.2 (22)*
G04*
G04 Layer_Color=8388736*
%FSLAX25Y25*%
%MOIN*%
G70*
G04*
G04 #@! TF.SameCoordinates,DC056F1D-8049-40C2-8729-A4453FB46455*
G04*
G04*
G04 #@! TF.FilePolarity,Negative*
G04*
G01*
G75*
%ADD15R,0.06102X0.02362*%
%ADD19R,0.05131X0.07493*%
%ADD20R,0.06312X0.07099*%
%ADD21R,0.05131X0.07296*%
%ADD22C,0.07099*%
G04:AMPARAMS|DCode=23|XSize=70.99mil|YSize=70.99mil|CornerRadius=19.75mil|HoleSize=0mil|Usage=FLASHONLY|Rotation=270.000|XOffset=0mil|YOffset=0mil|HoleType=Round|Shape=RoundedRectangle|*
%AMROUNDEDRECTD23*
21,1,0.07099,0.03150,0,0,270.0*
21,1,0.03150,0.07099,0,0,270.0*
1,1,0.03950,-0.01575,-0.01575*
1,1,0.03950,-0.01575,0.01575*
1,1,0.03950,0.01575,0.01575*
1,1,0.03950,0.01575,-0.01575*
%
%ADD23ROUNDEDRECTD23*%
%ADD24C,0.14580*%
D15*
X379740Y319500D02*
D03*
Y314500D02*
D03*
Y309500D02*
D03*
Y304500D02*
D03*
Y299500D02*
D03*
Y294500D02*
D03*
Y289500D02*
D03*
X401000D02*
D03*
Y294500D02*
D03*
Y299500D02*
D03*
Y304500D02*
D03*
Y309500D02*
D03*
Y314500D02*
D03*
Y319500D02*
D03*
D19*
X395618Y328000D02*
D03*
X385382D02*
D03*
D20*
X394094Y280000D02*
D03*
X405905D02*
D03*
X387405Y336500D02*
D03*
X375594D02*
D03*
D21*
X386110Y280000D02*
D03*
X374890D02*
D03*
X394890Y336500D02*
D03*
X406110D02*
D03*
D22*
X365500Y294500D02*
D03*
Y314500D02*
D03*
Y334500D02*
D03*
Y324500D02*
D03*
Y304500D02*
D03*
Y284500D02*
D03*
Y274500D02*
D03*
Y264500D02*
D03*
X415500Y334500D02*
D03*
Y344500D02*
D03*
Y294500D02*
D03*
Y284500D02*
D03*
Y274500D02*
D03*
D23*
X365500Y344500D02*
D03*
X415500Y324500D02*
D03*
Y304500D02*
D03*
D24*
X390500Y350000D02*
D03*
X402500Y266000D02*
D03*
M02*
