G04*
G04 #@! TF.GenerationSoftware,Altium Limited,Altium Designer,25.1.2 (22)*
G04*
G04 Layer_Physical_Order=2*
G04 Layer_Color=16711680*
%FSLAX25Y25*%
%MOIN*%
G70*
G04*
G04 #@! TF.SameCoordinates,DC056F1D-8049-40C2-8729-A4453FB46455*
G04*
G04*
G04 #@! TF.FilePolarity,Positive*
G04*
G01*
G75*
%ADD16R,0.04331X0.06693*%
%ADD25C,0.01000*%
%ADD26C,0.06299*%
G04:AMPARAMS|DCode=27|XSize=62.99mil|YSize=62.99mil|CornerRadius=15.75mil|HoleSize=0mil|Usage=FLASHONLY|Rotation=270.000|XOffset=0mil|YOffset=0mil|HoleType=Round|Shape=RoundedRectangle|*
%AMROUNDEDRECTD27*
21,1,0.06299,0.03150,0,0,270.0*
21,1,0.03150,0.06299,0,0,270.0*
1,1,0.03150,-0.01575,-0.01575*
1,1,0.03150,-0.01575,0.01575*
1,1,0.03150,0.01575,0.01575*
1,1,0.03150,0.01575,-0.01575*
%
%ADD27ROUNDEDRECTD27*%
%ADD28C,0.13780*%
%ADD29C,0.02500*%
%ADD30R,0.22165X0.23976*%
%ADD31R,0.03819X0.11142*%
D16*
X374882Y266000D02*
D03*
X385118D02*
D03*
D25*
X388500Y260000D02*
X391702Y263202D01*
X376000Y260000D02*
X388500D01*
X391702Y263202D02*
Y267702D01*
X398500Y274500D01*
X415500D01*
X374500Y265618D02*
X374882Y266000D01*
X374500Y261500D02*
Y265618D01*
Y261500D02*
X376000Y260000D01*
X384157Y266962D02*
X385118Y266000D01*
X377000Y272000D02*
X382038Y266962D01*
X371500Y272000D02*
X377000D01*
X382038Y266962D02*
X384157D01*
X365500Y265934D02*
X367038Y267472D01*
Y267538D01*
X371500Y272000D01*
X365500Y264500D02*
Y265934D01*
X385118Y266000D02*
Y277618D01*
X380819Y280819D02*
X387890Y287890D01*
X376984Y280819D02*
X380819D01*
X387890Y287890D02*
X398016D01*
X405905Y280000D01*
X375000Y290000D02*
X401000D01*
X371500Y286500D02*
X375000Y290000D01*
X388319Y280819D02*
X395016D01*
X385118Y277618D02*
X388319Y280819D01*
X371500Y280500D02*
Y286500D01*
X365500Y274500D02*
X371500Y280500D01*
X365500Y274500D02*
X365500D01*
X365500Y284500D02*
Y285934D01*
X367038Y287472D01*
X372000Y292500D02*
X399000D01*
X367038Y287472D02*
Y287538D01*
X372000Y292500D01*
X385500Y322000D02*
X396192D01*
X399000Y319192D01*
Y308500D02*
Y319192D01*
X375594Y331906D02*
X385500Y322000D01*
X399000Y308500D02*
X403000Y304500D01*
X375594Y331906D02*
Y336500D01*
X386500Y324500D02*
X399000D01*
X385500Y328500D02*
X387500Y326500D01*
X400000D01*
X385500Y328500D02*
Y341000D01*
X381000Y330000D02*
X386500Y324500D01*
X381000Y330000D02*
Y338500D01*
X399000Y324500D02*
X401500Y322000D01*
X400000Y326500D02*
X404500Y322000D01*
X401500Y312000D02*
X404000Y309500D01*
X404250Y314500D02*
X404500Y314750D01*
X401500Y312000D02*
Y322000D01*
X404500Y314750D02*
Y322000D01*
X407500Y319500D02*
X413000D01*
X422500Y310000D01*
Y281500D02*
Y310000D01*
X399000Y292500D02*
X401000Y294500D01*
X375500Y351000D02*
X385500Y341000D01*
X359000D02*
X365500Y334500D01*
X359000Y341000D02*
Y348000D01*
X362000Y351000D01*
X375500D01*
X375000Y344500D02*
X381000Y338500D01*
X365500Y344500D02*
X375000D01*
X415500Y274500D02*
X422500Y281500D01*
X405905Y280000D02*
Y294905D01*
X415500Y304500D01*
D26*
X365500Y294500D02*
D03*
Y314500D02*
D03*
Y334500D02*
D03*
Y324500D02*
D03*
Y304500D02*
D03*
Y284500D02*
D03*
Y274500D02*
D03*
Y264500D02*
D03*
X415500Y334500D02*
D03*
Y344500D02*
D03*
Y294500D02*
D03*
Y284500D02*
D03*
Y274500D02*
D03*
D27*
X365500Y344500D02*
D03*
X415500Y324500D02*
D03*
Y304500D02*
D03*
D28*
X390500Y350000D02*
D03*
X402500Y266000D02*
D03*
D29*
X401000Y290000D02*
D03*
X395000Y317000D02*
D03*
X404250Y314500D02*
D03*
X404000Y309500D02*
D03*
X407500Y319500D02*
D03*
X403000Y304500D02*
D03*
X375594Y336500D02*
D03*
X405905Y280000D02*
D03*
X401000Y294500D02*
D03*
D30*
X386000Y307000D02*
D03*
D31*
X376984Y280819D02*
D03*
X395016D02*
D03*
M02*
