G04*
G04 #@! TF.GenerationSoftware,Altium Limited,Altium Designer,25.1.2 (22)*
G04*
G04 Layer_Color=2752767*
%FSLAX25Y25*%
%MOIN*%
G70*
G04*
G04 #@! TF.SameCoordinates,DC056F1D-8049-40C2-8729-A4453FB46455*
G04*
G04*
G04 #@! TF.FilePolarity,Positive*
G04*
G01*
G75*
%ADD35C,0.00500*%
%ADD42C,0.00667*%
D35*
X363500Y292500D02*
Y296500D01*
X367500D01*
Y292500D01*
X363500D01*
Y312500D02*
Y316500D01*
X367500D01*
Y312500D01*
X363500D01*
Y332500D02*
Y336500D01*
X367500D01*
Y332500D01*
X363500D01*
Y342500D02*
Y346500D01*
X367500D01*
Y342500D01*
X363500D01*
Y322500D02*
Y326500D01*
X367500D01*
Y322500D01*
X363500D01*
Y302500D02*
Y306500D01*
X367500D01*
Y302500D01*
X363500D01*
Y282500D02*
Y286500D01*
X367500D01*
Y282500D01*
X363500D01*
Y272500D02*
Y276500D01*
X367500D01*
Y272500D01*
X363500D01*
Y262500D02*
Y266500D01*
X367500D01*
Y262500D01*
X363500D01*
X413500Y322500D02*
Y326500D01*
X417500D01*
Y322500D01*
X413500D01*
Y332500D02*
Y336500D01*
X417500D01*
Y332500D01*
X413500D01*
Y342500D02*
Y346500D01*
X417500D01*
Y342500D01*
X413500D01*
Y292500D02*
Y296500D01*
X417500D01*
Y292500D01*
X413500D01*
Y302500D02*
Y306500D01*
X417500D01*
Y302500D01*
X413500D01*
Y282500D02*
Y286500D01*
X417500D01*
Y282500D01*
X413500D01*
Y272500D02*
Y276500D01*
X417500D01*
Y272500D01*
X413500D01*
X401000Y288000D02*
X399000Y292000D01*
X403000D01*
X401000Y288000D01*
X395000Y315000D02*
X393000Y319000D01*
X397000D01*
X395000Y315000D01*
X404250Y312500D02*
X402250Y316500D01*
X406250D01*
X404250Y312500D01*
X404000Y307500D02*
X402000Y311500D01*
X406000D01*
X404000Y307500D01*
X407500Y317500D02*
X405500Y321500D01*
X409500D01*
X407500Y317500D01*
X403000Y302500D02*
X401000Y306500D01*
X405000D01*
X403000Y302500D01*
X375594Y334500D02*
X373594Y338500D01*
X377594D01*
X375594Y334500D01*
X405905Y278000D02*
X403905Y282000D01*
X407905D01*
X405905Y278000D01*
X401000Y292500D02*
X399000Y296500D01*
X403000D01*
X401000Y292500D01*
D42*
X392500Y350000D02*
G03*
X392500Y350000I-2000J0D01*
G01*
X404500Y266000D02*
G03*
X404500Y266000I-2000J0D01*
G01*
M02*
