M48
;Layer_Color=9474304
;FILE_FORMAT=2:5
INCH,TZ
;TYPE=PLATED
T01F00S00C0.01500
T02F00S00C0.04331
T03F00S00C0.07874
%
T01
X405905Y280000
X401000Y290000
Y294500
X403000Y304500
X404000Y309500
X404250Y314500
X407500Y319500
X395000Y317000
X375594Y336500
T02
X365500Y264500
Y274500
Y284500
Y294500
Y304500
X415500
Y294500
Y284500
Y274500
Y324500
Y334500
Y344500
X365500
Y334500
Y324500
Y314500
T03
X402500Y266000
X390500Y350000
M30
