G04*
G04 #@! TF.GenerationSoftware,Altium Limited,Altium Designer,25.1.2 (22)*
G04*
G04 Layer_Color=65535*
%FSLAX25Y25*%
%MOIN*%
G70*
G04*
G04 #@! TF.SameCoordinates,DC056F1D-8049-40C2-8729-A4453FB46455*
G04*
G04*
G04 #@! TF.FilePolarity,Positive*
G04*
G01*
G75*
%ADD10C,0.00984*%
%ADD11C,0.00787*%
%ADD12C,0.00800*%
%ADD13C,0.00900*%
%ADD14R,0.00787X0.05906*%
D10*
X374524Y319500D02*
G03*
X374524Y319500I-492J0D01*
G01*
D11*
X384268Y321724D02*
X396472D01*
X384268Y287276D02*
X396472D01*
X389122Y325047D02*
X391878D01*
X389122Y330953D02*
X391878D01*
X378532Y277146D02*
X382469D01*
X378532Y282854D02*
X382469D01*
X398532Y339354D02*
X402468D01*
X398532Y333646D02*
X402468D01*
D12*
X409085Y314799D02*
Y311883D01*
X409668Y311300D01*
X410835D01*
X411418Y311883D01*
Y314799D01*
X412584Y311300D02*
Y313633D01*
X413751Y314799D01*
X414917Y313633D01*
Y311300D01*
Y313049D01*
X412584D01*
X416083Y311300D02*
Y314799D01*
X417833D01*
X418416Y314216D01*
Y313049D01*
X417833Y312466D01*
X416083D01*
X417249D02*
X418416Y311300D01*
X419582Y314799D02*
X421915D01*
X420748D01*
Y311300D01*
X409085Y351300D02*
Y354799D01*
X410835D01*
X411418Y354216D01*
Y353049D01*
X410835Y352466D01*
X409085D01*
X412584Y351300D02*
Y354799D01*
X414334D01*
X414917Y354216D01*
Y353049D01*
X414334Y352466D01*
X412584D01*
X413751D02*
X414917Y351300D01*
X417833Y354799D02*
X416666D01*
X416083Y354216D01*
Y351883D01*
X416666Y351300D01*
X417833D01*
X418416Y351883D01*
Y354216D01*
X417833Y354799D01*
X421915Y354216D02*
X421332Y354799D01*
X420165D01*
X419582Y354216D01*
Y351883D01*
X420165Y351300D01*
X421332D01*
X421915Y351883D01*
Y353049D01*
X420748D01*
X362876Y354799D02*
X364042D01*
X363459D01*
Y351300D01*
X362876D01*
X364042D01*
X367541Y354799D02*
X366375D01*
X365792Y354216D01*
Y351883D01*
X366375Y351300D01*
X367541D01*
X368124Y351883D01*
Y354216D01*
X367541Y354799D01*
X423617Y272334D02*
X423201Y271917D01*
Y271084D01*
X423617Y270668D01*
X425283D01*
X425700Y271084D01*
Y271917D01*
X425283Y272334D01*
X424450D01*
Y271501D01*
X425700Y273167D02*
X423201D01*
X425700Y274833D01*
X423201D01*
Y275666D02*
X425700D01*
Y276916D01*
X425283Y277332D01*
X423617D01*
X423201Y276916D01*
Y275666D01*
Y302834D02*
Y301168D01*
X424450D01*
X424034Y302001D01*
Y302417D01*
X424450Y302834D01*
X425283D01*
X425700Y302417D01*
Y301584D01*
X425283Y301168D01*
X423201Y303667D02*
X424867D01*
X425700Y304500D01*
X424867Y305333D01*
X423201D01*
X423617Y306166D02*
X423201Y306583D01*
Y307416D01*
X423617Y307832D01*
X425283D01*
X425700Y307416D01*
Y306583D01*
X425283Y306166D01*
X423617D01*
X425700Y291168D02*
X423201D01*
Y292417D01*
X423617Y292834D01*
X424450D01*
X424867Y292417D01*
Y291168D01*
Y292001D02*
X425700Y292834D01*
X423201Y293667D02*
X425700Y295333D01*
X423201D02*
X425700Y293667D01*
X423201Y296166D02*
X425700D01*
Y297416D01*
X425283Y297832D01*
X423617D01*
X423201Y297416D01*
Y296166D01*
Y280668D02*
Y282334D01*
Y281501D01*
X425700D01*
X423201Y283167D02*
X425700Y284833D01*
X423201D02*
X425700Y283167D01*
X423201Y285666D02*
X425700D01*
Y286916D01*
X425283Y287332D01*
X423617D01*
X423201Y286916D01*
Y285666D01*
Y322334D02*
Y320668D01*
X424450D01*
X424034Y321501D01*
Y321917D01*
X424450Y322334D01*
X425283D01*
X425700Y321917D01*
Y321084D01*
X425283Y320668D01*
X423201Y323167D02*
X424867D01*
X425700Y324000D01*
X424867Y324833D01*
X423201D01*
X423617Y325666D02*
X423201Y326083D01*
Y326916D01*
X423617Y327332D01*
X425283D01*
X425700Y326916D01*
Y326083D01*
X425283Y325666D01*
X423617D01*
X423201Y330335D02*
X425283D01*
X425700Y330751D01*
Y331584D01*
X425283Y332001D01*
X423201D01*
X425700Y332834D02*
X423201D01*
Y334084D01*
X423617Y334500D01*
X424450D01*
X424867Y334084D01*
Y332834D01*
X423201Y335333D02*
X425700D01*
Y336583D01*
X425283Y336999D01*
X423617D01*
X423201Y336583D01*
Y335333D01*
Y337832D02*
Y338665D01*
Y338249D01*
X425700D01*
Y337832D01*
Y338665D01*
X423617Y342834D02*
X423201Y342417D01*
Y341584D01*
X423617Y341168D01*
X425283D01*
X425700Y341584D01*
Y342417D01*
X425283Y342834D01*
X424450D01*
Y342001D01*
X425700Y343667D02*
X423201D01*
X425700Y345333D01*
X423201D01*
Y346166D02*
X425700D01*
Y347416D01*
X425283Y347832D01*
X423617D01*
X423201Y347416D01*
Y346166D01*
X357716Y295666D02*
X358299Y295083D01*
Y293917D01*
X357716Y293334D01*
X357133D01*
X356549Y293917D01*
Y294500D01*
Y293917D01*
X355966Y293334D01*
X355383D01*
X354800Y293917D01*
Y295083D01*
X355383Y295666D01*
X358299Y285666D02*
Y283334D01*
X357716D01*
X355383Y285666D01*
X354800D01*
X358299Y273334D02*
X357716Y274500D01*
X356549Y275666D01*
X355383D01*
X354800Y275083D01*
Y273917D01*
X355383Y273334D01*
X355966D01*
X356549Y273917D01*
Y275666D01*
X354800Y303334D02*
Y305666D01*
X357133Y303334D01*
X357716D01*
X358299Y303917D01*
Y305083D01*
X357716Y305666D01*
X354800Y315083D02*
Y313917D01*
Y314500D01*
X358299D01*
X357716Y315083D01*
Y325666D02*
X358299Y325083D01*
Y323917D01*
X357716Y323334D01*
X355383D01*
X354800Y323917D01*
Y325083D01*
X355383Y325666D01*
X357716D01*
X354800Y337124D02*
Y335958D01*
Y336541D01*
X358299D01*
X357716Y337124D01*
Y334208D02*
X358299Y333625D01*
Y332459D01*
X357716Y331876D01*
X355383D01*
X354800Y332459D01*
Y333625D01*
X355383Y334208D01*
X357716D01*
X355383Y345666D02*
X354800Y345083D01*
Y343917D01*
X355383Y343334D01*
X357716D01*
X358299Y343917D01*
Y345083D01*
X357716Y345666D01*
X357133D01*
X356549Y345083D01*
Y343334D01*
D13*
X375834Y326499D02*
Y323167D01*
X376501Y322501D01*
X377834D01*
X378500Y323167D01*
Y326499D01*
X379833Y322501D02*
X381166D01*
X380499D01*
Y326499D01*
X379833Y325833D01*
X402500Y329333D02*
X401834Y329999D01*
X400501D01*
X399834Y329333D01*
Y326667D01*
X400501Y326001D01*
X401834D01*
X402500Y326667D01*
X403833Y326001D02*
X405166D01*
X404499D01*
Y329999D01*
X403833Y329333D01*
X407999Y341168D02*
X404001D01*
Y343167D01*
X404667Y343834D01*
X406000D01*
X406666Y343167D01*
Y341168D01*
Y342501D02*
X407999Y343834D01*
Y347832D02*
Y345166D01*
X405334Y347832D01*
X404667D01*
X404001Y347166D01*
Y345833D01*
X404667Y345166D01*
X372834Y271501D02*
Y275499D01*
X374834D01*
X375500Y274833D01*
Y273500D01*
X374834Y272834D01*
X372834D01*
X374167D02*
X375500Y271501D01*
X376833D02*
X378166D01*
X377499D01*
Y275499D01*
X376833Y274833D01*
X373001Y341168D02*
X376999D01*
Y343167D01*
X376333Y343834D01*
X373667D01*
X373001Y343167D01*
Y341168D01*
X376999Y347832D02*
Y345166D01*
X374334Y347832D01*
X373667D01*
X373001Y347166D01*
Y345833D01*
X373667Y345166D01*
X390834Y275499D02*
Y271501D01*
X392834D01*
X393500Y272167D01*
Y274833D01*
X392834Y275499D01*
X390834D01*
X394833Y271501D02*
X396166D01*
X395499D01*
Y275499D01*
X394833Y274833D01*
D14*
X390158Y280000D02*
D03*
X391342Y336500D02*
D03*
M02*
