G04*
G04 #@! TF.GenerationSoftware,Altium Limited,Altium Designer,25.1.2 (22)*
G04*
G04 Layer_Physical_Order=1*
G04 Layer_Color=255*
%FSLAX25Y25*%
%MOIN*%
G70*
G04*
G04 #@! TF.SameCoordinates,DC056F1D-8049-40C2-8729-A4453FB46455*
G04*
G04*
G04 #@! TF.FilePolarity,Positive*
G04*
G01*
G75*
%ADD15R,0.06102X0.02362*%
%ADD16R,0.04331X0.06693*%
%ADD17R,0.05512X0.06299*%
%ADD18R,0.04331X0.06496*%
%ADD25C,0.01000*%
%ADD26C,0.06299*%
G04:AMPARAMS|DCode=27|XSize=62.99mil|YSize=62.99mil|CornerRadius=15.75mil|HoleSize=0mil|Usage=FLASHONLY|Rotation=270.000|XOffset=0mil|YOffset=0mil|HoleType=Round|Shape=RoundedRectangle|*
%AMROUNDEDRECTD27*
21,1,0.06299,0.03150,0,0,270.0*
21,1,0.03150,0.06299,0,0,270.0*
1,1,0.03150,-0.01575,-0.01575*
1,1,0.03150,-0.01575,0.01575*
1,1,0.03150,0.01575,0.01575*
1,1,0.03150,0.01575,-0.01575*
%
%ADD27ROUNDEDRECTD27*%
%ADD28C,0.13780*%
%ADD29C,0.02500*%
D15*
X379740Y319500D02*
D03*
Y314500D02*
D03*
Y309500D02*
D03*
Y304500D02*
D03*
Y299500D02*
D03*
Y294500D02*
D03*
Y289500D02*
D03*
X401000D02*
D03*
Y294500D02*
D03*
Y299500D02*
D03*
Y304500D02*
D03*
Y309500D02*
D03*
Y314500D02*
D03*
Y319500D02*
D03*
D16*
X395618Y328000D02*
D03*
X385382D02*
D03*
D17*
X394094Y280000D02*
D03*
X405905D02*
D03*
X387405Y336500D02*
D03*
X375594D02*
D03*
D18*
X386110Y280000D02*
D03*
X374890D02*
D03*
X394890Y336500D02*
D03*
X406110D02*
D03*
D25*
X395703Y286797D02*
X407797D01*
X384457Y284783D02*
X415217D01*
X415500Y284500D01*
X388000Y294500D02*
X395703Y286797D01*
X407797D02*
X415500Y294500D01*
X381836Y287405D02*
X384457Y284783D01*
X399130Y319500D02*
X401000D01*
X396917Y317287D02*
X399130Y319500D01*
X395287Y317287D02*
X396917D01*
X395000Y317000D02*
X395287Y317287D01*
X401000Y319500D02*
X407500D01*
X405500Y299500D02*
X410250Y304250D01*
Y329250D01*
X415500Y334500D01*
X397284Y321346D02*
X399130Y319500D01*
X397284Y321346D02*
Y325183D01*
X386110Y280000D02*
X394094D01*
X401000Y299500D02*
X405500D01*
X375500Y314500D02*
X379740D01*
X365500Y324500D02*
X375500Y314500D01*
X365500D02*
X370500Y309500D01*
X379740D01*
X365500Y304500D02*
X379740D01*
X365500Y294500D02*
X370500Y299500D01*
X379740D01*
X375476Y275250D02*
X414750D01*
X374890Y275836D02*
X375476Y275250D01*
X374890Y275836D02*
Y280000D01*
X414750Y275250D02*
X415500Y274500D01*
X379740Y294500D02*
X388000D01*
X381836Y287405D02*
Y288819D01*
X379740Y289500D02*
X381154D01*
X381836Y288819D01*
X398855Y341355D02*
X409000Y351500D01*
X382855Y341355D02*
X398855D01*
X380500Y339000D02*
X382855Y341355D01*
X380500Y329605D02*
X382302Y327802D01*
X380500Y329605D02*
Y339000D01*
X409000Y351500D02*
X418000D01*
X421500Y348000D01*
Y330500D02*
Y348000D01*
X415500Y324500D02*
X421500Y330500D01*
X415500Y304500D02*
Y324500D01*
X395618Y326849D02*
X397284Y325183D01*
X395618Y326849D02*
Y328000D01*
X382302Y327802D02*
X385184D01*
X379740Y325240D02*
X382302Y327802D01*
X385184D02*
X385382Y328000D01*
X379740Y319500D02*
Y325240D01*
X406110Y336500D02*
Y342110D01*
X408500Y344500D01*
X415500D01*
X402500Y328000D02*
X406110Y331610D01*
Y336500D01*
X395618Y328000D02*
X402500D01*
X387405Y336500D02*
X394890D01*
D26*
X365500Y294500D02*
D03*
Y314500D02*
D03*
Y334500D02*
D03*
Y324500D02*
D03*
Y304500D02*
D03*
Y284500D02*
D03*
Y274500D02*
D03*
Y264500D02*
D03*
X415500Y334500D02*
D03*
Y344500D02*
D03*
Y294500D02*
D03*
Y284500D02*
D03*
Y274500D02*
D03*
D27*
X365500Y344500D02*
D03*
X415500Y324500D02*
D03*
Y304500D02*
D03*
D28*
X390500Y350000D02*
D03*
X402500Y266000D02*
D03*
D29*
X401000Y290000D02*
D03*
X395000Y317000D02*
D03*
X404250Y314500D02*
D03*
X404000Y309500D02*
D03*
X407500Y319500D02*
D03*
X403000Y304500D02*
D03*
X375594Y336500D02*
D03*
X405905Y280000D02*
D03*
X401000Y294500D02*
D03*
M02*
