G04*
G04 #@! TF.GenerationSoftware,Altium Limited,Altium Designer,25.1.2 (22)*
G04*
G04 Layer_Color=128*
%FSLAX25Y25*%
%MOIN*%
G70*
G04*
G04 #@! TF.SameCoordinates,DC056F1D-8049-40C2-8729-A4453FB46455*
G04*
G04*
G04 #@! TF.FilePolarity,Positive*
G04*
G01*
G75*
%ADD16R,0.04331X0.06693*%
%ADD31R,0.03819X0.11142*%
G36*
X395980Y312118D02*
X390823D01*
Y317866D01*
X395980D01*
Y312118D01*
D02*
G37*
G36*
X388579D02*
X383421D01*
Y317866D01*
X388579D01*
Y312118D01*
D02*
G37*
G36*
X381177D02*
X376020D01*
Y317866D01*
X381177D01*
Y312118D01*
D02*
G37*
G36*
X395980Y304126D02*
X390823D01*
Y309874D01*
X395980D01*
Y304126D01*
D02*
G37*
G36*
X388579D02*
X383421D01*
Y309874D01*
X388579D01*
Y304126D01*
D02*
G37*
G36*
X381177D02*
X376020D01*
Y309874D01*
X381177D01*
Y304126D01*
D02*
G37*
G36*
X395980Y296134D02*
X390823D01*
Y301882D01*
X395980D01*
Y296134D01*
D02*
G37*
G36*
X388579D02*
X383421D01*
Y301882D01*
X388579D01*
Y296134D01*
D02*
G37*
G36*
X381177D02*
X376020D01*
Y301882D01*
X381177D01*
Y296134D01*
D02*
G37*
D16*
X374882Y266000D02*
D03*
X385118D02*
D03*
D31*
X376984Y280819D02*
D03*
X395016D02*
D03*
M02*
