G04*
G04 #@! TF.GenerationSoftware,Altium Limited,Altium Designer,25.1.2 (22)*
G04*
G04 Layer_Color=255*
%FSLAX25Y25*%
%MOIN*%
G70*
G04*
G04 #@! TF.SameCoordinates,DC056F1D-8049-40C2-8729-A4453FB46455*
G04*
G04*
G04 #@! TF.FilePolarity,Positive*
G04*
G01*
G75*
%ADD16R,0.04331X0.06693*%
%ADD26C,0.06299*%
G04:AMPARAMS|DCode=27|XSize=62.99mil|YSize=62.99mil|CornerRadius=15.75mil|HoleSize=0mil|Usage=FLASHONLY|Rotation=270.000|XOffset=0mil|YOffset=0mil|HoleType=Round|Shape=RoundedRectangle|*
%AMROUNDEDRECTD27*
21,1,0.06299,0.03150,0,0,270.0*
21,1,0.03150,0.06299,0,0,270.0*
1,1,0.03150,-0.01575,-0.01575*
1,1,0.03150,-0.01575,0.01575*
1,1,0.03150,0.01575,0.01575*
1,1,0.03150,0.01575,-0.01575*
%
%ADD27ROUNDEDRECTD27*%
%ADD28C,0.13780*%
%ADD30R,0.22165X0.23976*%
%ADD31R,0.03819X0.11142*%
D16*
X374882Y266000D02*
D03*
X385118D02*
D03*
D26*
X365500Y294500D02*
D03*
Y314500D02*
D03*
Y334500D02*
D03*
Y324500D02*
D03*
Y304500D02*
D03*
Y284500D02*
D03*
Y274500D02*
D03*
Y264500D02*
D03*
X415500Y334500D02*
D03*
Y344500D02*
D03*
Y294500D02*
D03*
Y284500D02*
D03*
Y274500D02*
D03*
D27*
X365500Y344500D02*
D03*
X415500Y324500D02*
D03*
Y304500D02*
D03*
D28*
X390500Y350000D02*
D03*
X402500Y266000D02*
D03*
D30*
X386000Y307000D02*
D03*
D31*
X376984Y280819D02*
D03*
X395016D02*
D03*
M02*
